{"title":"Dead In Tombstone (2013) BRrip 720p x264 Dual Audio [Eng DD 5.1-","uid":11263818,"size":1368296486,"categoryP":"video","categoryS":"hd___movies","magnet":"?xt=urn:btih:27619d1a46e757263522be69f1db35f26271507f&amp;dn=Dead+In+Tombstone+%282013%29+BRrip+720p+x264+Dual+Audio+%5BEng+DD+5.1-&amp;tr=udp%3A%2F%2Ftracker.openbittorrent.com%3A80&amp;tr=udp%3A%2F%2Fopen.demonii.com%3A1337&amp;tr=udp%3A%2F%2Ftracker.coppersurfer.tk%3A6969&amp;tr=udp%3A%2F%2Fexodus.desync.com%3A6969","seeders":0,"leechers":1,"uploader":"Xdesiars","files":5,"time":1413999632,"description":"Format                                   : Matroska\nFormat version                           : Version 2\nFile size                                : 1.27 GiB\nDuration                                 : 1h 39mn\nOverall bit rate                         : 1 814 Kbps\nMovie name                               : Dead In Tombstone (2013) by XdesiArsenal [ExD-XMR]\nEncoded date                             : UTC 2014-10-22 14:49:18\nWriting application                      : mkvmerge v5.0.1 ('Es ist Sommer') built on Nov 23 2011 20:48:57\nWriting library                          : libebml v1.2.2 + libmatroska v1.3.0\n\nVideo\nID                                       : 1\nFormat                                   : AVC\nFormat/Info                              : Advanced Video Codec\nFormat profile                           : &lt;a class=&quot;__cf_email__&quot; href=&quot;/cdn-cgi/l/email-protection&quot; data-cfemail=&quot;b0fdd1d9def0fc839e81&quot;&gt;[email&amp;#160;protected]&lt;/a&gt;&lt;script cf-hash='f9e31' type=&quot;text/javascript&quot;&gt;\n/* &lt;![CDATA[ */!function(){try{var t=&quot;currentScript&quot;in document?document.currentScript:function(){for(var t=document.getElementsByTagName(&quot;script&quot;),e=t.length;e--;)if(t[e].getAttribute(&quot;cf-hash&quot;))return t[e]}();if(t&amp;&amp;t.previousSibling){var e,r,n,i,c=t.previousSibling,a=c.getAttribute(&quot;data-cfemail&quot;);if(a){for(e=&quot;&quot;,r=parseInt(a.substr(0,2),16),n=2;a.length-n;n+=2)i=parseInt(a.substr(n,2),16)^r,e+=String.fromCharCode(i);e=document.createTextNode(e),c.parentNode.replaceChild(e,c)}}}catch(u){}}();/* ]]&gt; */&lt;/script&gt;\nFormat settings, CABAC                   : Yes\nFormat settings, ReFrames                : 4 frames\nMuxing mode                              : Header stripping\nCodec ID                                 : V_MPEG4/ISO/AVC\nDuration                                 : 1h 39mn\nBit rate                                 : 1 426 Kbps\nWidth                                    : 1 280 pixels\nHeight                                   : 720 pixels\nDisplay aspect ratio                     : 16:9\nFrame rate mode                          : Constant\nFrame rate                               : 23.976 fps\nColor space                              : YUV\nChroma subsampling                       : 4:2:0\nBit depth                                : 8 bits\nScan type                                : Progressive\nBits/(Pixel*Frame)                       : 0.065\nStream size                              : 1 019 MiB (79%)\nTitle                                    : Dead In Tombstone (2013) by XdesiArsenal [ExD-XMR]\nWriting library                          : x264 core 112\nLanguage                                 : English\nDefault                                  : Yes\nForced                                   : No\nColor primaries                          : BT.709\nTransfer characteristics                 : BT.709\nMatrix coefficients                      : BT.709\n\nAudio #1\nID                                       : 2\nFormat                                   : AC-3\nFormat/Info                              : Audio Coding 3\nMode extension                           : CM (complete main)\nFormat settings, Endianness              : Big\nMuxing mode                              : Header stripping\nCodec ID                                 : A_AC3\nDuration                                 : 1h 39mn\nBit rate mode                            : Constant\nBit rate                                 : 224 Kbps\nChannel(s)                               : 6 channels\nChannel positions                        : Front: L C R, Side: L R, LFE\nSampling rate                            : 48.0 KHz\nBit depth                                : 16 bits\nCompression mode                         : Lossy\nStream size                              : 160 MiB (12%)\nTitle                                    : XdesiArsenal\nLanguage                                 : English\nDefault                                  : No\nForced                                   : No\n\nAudio #2\nID                                       : 3\nFormat                                   : AC-3\nFormat/Info                              : Audio Coding 3\nMode extension                           : CM (complete main)\nFormat settings, Endianness              : Big\nMuxing mode                              : Header stripping\nCodec ID                                 : A_AC3\nDuration                                 : 1h 39mn\nBit rate mode                            : Constant\nBit rate                                 : 128 Kbps\nChannel(s)                               : 2 channels\nChannel positions                        : Front: L R\nSampling rate                            : 48.0 KHz\nBit depth                                : 16 bits\nCompression mode                         : Lossy\nStream size                              : 91.5 MiB (7%)\nTitle                                    : XdesiArsenal\nLanguage                                 : Hindi\nDefault                                  : Yes\nForced                                   : No\n\nMenu\n00:00:00.000                             : en:Chapter 1\n00:04:50.916                             : en:Chapter 2\n00:09:20.810                             : en:Chapter 3\n00:13:04.158                             : en:Chapter 4\n00:17:48.150                             : en:Chapter 5\n00:22:20.172                             : en:Chapter 6\n00:30:53.477                             : en:Chapter 7\n00:38:30.225                             : en:Chapter 8\n00:46:41.882                             : en:Chapter 9\n00:49:39.643                             : en:Chapter 10\n00:52:40.574                             : en:Chapter 11\n00:56:18.792                             : en:Chapter 12\n01:02:11.853                             : en:Chapter 13\n01:06:14.053                             : en:Chapter 14\n01:12:31.222                             : en:Chapter 15\n01:17:38.904                             : en:Chapter 16\n01:21:30.052                             : en:Chapter 17\n01:25:32.544                             : en:Chapter 18\n01:30:24.878                             : en:Chapter 19\n01:36:14.769                             : en:Chapter 20","torrent":{"xt":"urn:btih:27619d1a46e757263522be69f1db35f26271507f","amp;dn":"Dead+In+Tombstone+%282013%29+BRrip+720p+x264+Dual+Audio+%5BEng+DD+5.1-","amp;tr":["udp%3A%2F%2Ftracker.openbittorrent.com%3A80","udp%3A%2F%2Fopen.demonii.com%3A1337","udp%3A%2F%2Ftracker.coppersurfer.tk%3A6969","udp%3A%2F%2Fexodus.desync.com%3A6969"],"infoHash":"27619d1a46e757263522be69f1db35f26271507f","infoHashBuffer":{"type":"Buffer","data":[39,97,157,26,70,231,87,38,53,34,190,105,241,219,53,242,98,113,80,127]},"announce":[],"urlList":[]}}